<?xml version="1.0" encoding="UTF-8" standalone="no"?>
<!-- Created with Inkscape (http://www.inkscape.org/) -->

<svg
   width="210mm"
   height="297mm"
   viewBox="0 0 210 297"
   version="1.1"
   id="svg1"
   xml:space="preserve"
   inkscape:version="1.3.2 (091e20e, 2023-11-25, custom)"
   sodipodi:docname="dessin.svg"
   xmlns:inkscape="http://www.inkscape.org/namespaces/inkscape"
   xmlns:sodipodi="http://sodipodi.sourceforge.net/DTD/sodipodi-0.dtd"
   xmlns="http://www.w3.org/2000/svg"
   xmlns:svg="http://www.w3.org/2000/svg"><sodipodi:namedview
     id="namedview1"
     pagecolor="#ffffff"
     bordercolor="#000000"
     borderopacity="0.25"
     inkscape:showpageshadow="2"
     inkscape:pageopacity="0.0"
     inkscape:pagecheckerboard="0"
     inkscape:deskcolor="#d1d1d1"
     inkscape:document-units="mm"
     inkscape:zoom="1.0544998"
     inkscape:cx="175.43863"
     inkscape:cy="275.48607"
     inkscape:window-width="1920"
     inkscape:window-height="1051"
     inkscape:window-x="-9"
     inkscape:window-y="-9"
     inkscape:window-maximized="1"
     inkscape:current-layer="svg1" /><defs
     id="defs1" /><path
     style="fill:#ffffff;fill-opacity:1;stroke:#000000;stroke-width:0.797805;stroke-opacity:1"
     d="m 7.6339584,53.419958 9.9572646,0.869869 0.601447,6.089512 14.835661,1.405246 1.202885,-5.955632 10.491885,-0.133965 1.336546,6.156405 14.568351,-1.070652 0.801924,-6.290218 10.180226,-1.063953 -0.189035,-2.649783 -11.813499,1.135641 -0.850572,6.435209 -10.5849,0.757055 -1.03959,-5.678122 H 32.578315 l -1.323116,5.488833 -10.773916,-0.567774 -0.567048,-6.056711 -12.5695714,-1.8927 z"
     id="path5"
     inkscape:label="mouth" /><path
     style="fill:none;fill-opacity:1;stroke:#000000;stroke-width:0.797805;stroke-opacity:1"
     d="m 6.8988586,57.769565 c 0,0 -0.00836,0.945202 0.5220878,2.369277 0.5304416,1.424073 1.5996782,3.327016 3.7548586,5.242515 2.155179,1.915498 5.396302,3.843541 10.270516,5.317803 4.874216,1.474268 11.381522,2.494755 20.06907,2.595134 8.687549,0.100373 14.952606,-1.087399 19.463443,-2.925527 4.51084,-1.838121 7.267474,-4.326595 8.938156,-6.827625 1.670681,-2.501029 2.255415,-5.014601 2.422485,-6.902917 0.167055,-1.888313 -0.08354,-3.151376 -0.08354,-3.151376 L 72.322759,31.002652 76.86701,24.377859 70.384774,15.678638 63.768868,19.292164 56.551516,14.34029 57.019309,6.2432714 47.062045,2.8304897 43.720682,9.3884148 35.567749,9.7230088 32.025903,2.6967002 22.068639,5.9086766 22.603257,14.273395 15.65322,19.35906 8.9704912,15.611714 2.087281,24.310935 6.8988452,30.868859 Z"
     id="path7"
     inkscape:label="face"
     sodipodi:nodetypes="cssssssscccccccccccccccccc" /><path
     style="fill:none;fill-opacity:1;stroke:#000000;stroke-width:0.797805;stroke-opacity:1"
     d="m 37.104788,44.921448 v -6.959414 c 0,0 0.14201,-0.288572 0.395746,-0.652444 0.253739,-0.363857 0.619195,-0.803001 1.066103,-1.104119 0.446908,-0.301129 0.975263,-0.464221 1.554776,-0.276012 0.579521,0.188225 1.210202,0.727755 1.861768,1.831908 l 0.01656,1.823475 0.01656,1.823472 0.01657,1.823469 0.01656,1.823477 c 0,0 -0.158697,0.276039 -0.434379,0.618982 -0.27568,0.34295 -0.668271,0.752818 -1.136062,1.02048 -0.467793,0.267657 -1.010765,0.393121 -1.587147,0.167259 -0.576388,-0.225848 -1.186189,-0.80306 -1.787631,-1.940695 z"
     id="path8"
     sodipodi:nodetypes="ccssscccccssscc" /><path
     id="path9-6"
     style="fill:none;stroke:#000000;stroke-width:0.245381"
     d="m 62.447144,38.722 c 0,0.981029 -0.19598,1.915619 -0.550415,2.765678 -0.354431,0.850055 -0.867296,1.615581 -1.501045,2.258479 -0.63375,0.642896 -1.38838,1.163163 -2.226344,1.522708 -0.837962,0.359543 -1.75925,0.558363 -2.726322,0.558363 -0.967068,0 -1.888359,-0.198821 -2.726321,-0.558363 C 51.87873,44.90932 51.124101,44.389053 50.490355,43.746157 49.856605,43.103259 49.343738,42.337733 48.98931,41.487678 48.634884,40.637619 48.43889,39.703029 48.43889,38.722 c 0,-0.981029 0.195983,-1.915616 0.55042,-2.765677 0.354428,-0.850055 0.867295,-1.615583 1.501045,-2.258477 0.633746,-0.642898 1.388375,-1.16317 2.226342,-1.522711 0.837962,-0.359546 1.759253,-0.558366 2.726321,-0.558366 0.967072,0 1.88836,0.19882 2.726322,0.558366 0.837964,0.359541 1.592594,0.879813 2.226344,1.522711 0.633749,0.642894 1.146614,1.408422 1.501045,2.258477 0.354424,0.850061 0.550415,1.784648 0.550415,2.765677 z"
     inkscape:label="Eye2"
     sodipodi:nodetypes="sssssssssssssssss" /><path
     id="path9-6-3"
     style="fill:none;stroke:#000000;stroke-width:0.245381"
     d="m 29.603442,38.538099 c 0,0.98103 -0.196002,1.915623 -0.550417,2.765678 -0.354429,0.850059 -0.867291,1.615583 -1.501047,2.258481 -0.633744,0.642897 -1.388376,1.163166 -2.226341,1.522708 -0.837964,0.359543 -1.759254,0.558363 -2.726322,0.558363 -0.967066,0 -1.88836,-0.19882 -2.72632,-0.558363 -0.837965,-0.359542 -1.592597,-0.879811 -2.226346,-1.522708 -0.633748,-0.642898 -1.146613,-1.408422 -1.501043,-2.258481 -0.354427,-0.850055 -0.550418,-1.784648 -0.550418,-2.765678 0,-0.981024 0.195988,-1.915615 0.550418,-2.765673 0.35443,-0.850056 0.867295,-1.615582 1.501043,-2.258482 0.633749,-0.642899 1.388381,-1.163165 2.226346,-1.52271 0.83796,-0.359546 1.759254,-0.558364 2.72632,-0.558364 0.967068,0 1.888358,0.198821 2.726322,0.558364 0.837965,0.359545 1.592597,0.879811 2.226342,1.52271 0.633755,0.6429 1.146617,1.408426 1.501046,2.258482 0.354427,0.850058 0.550417,1.784649 0.550417,2.765673 z"
     inkscape:label="Eye2"
     sodipodi:nodetypes="sssssssssssssssss" /></svg>
