<?xml version="1.0" encoding="UTF-8" standalone="no"?>
<!-- Created with Inkscape (http://www.inkscape.org/) -->

<svg
   version="1.1"
   id="svg1"
   width="16"
   height="16"
   viewBox="0 0 16 16"
   sodipodi:docname="minicat.svg"
   inkscape:version="1.3.2 (091e20e, 2023-11-25, custom)"
   xmlns:inkscape="http://www.inkscape.org/namespaces/inkscape"
   xmlns:sodipodi="http://sodipodi.sourceforge.net/DTD/sodipodi-0.dtd"
   xmlns="http://www.w3.org/2000/svg"
   xmlns:svg="http://www.w3.org/2000/svg">
  <defs
     id="defs1" />
  <sodipodi:namedview
     id="namedview1"
     pagecolor="#ffffff"
     bordercolor="#000000"
     borderopacity="0.25"
     inkscape:showpageshadow="2"
     inkscape:pageopacity="0.0"
     inkscape:pagecheckerboard="0"
     inkscape:deskcolor="#d1d1d1"
     showgrid="false"
     inkscape:zoom="52.3125"
     inkscape:cx="7.9904421"
     inkscape:cy="5.2664277"
     inkscape:window-width="1920"
     inkscape:window-height="1051"
     inkscape:window-x="-9"
     inkscape:window-y="-9"
     inkscape:window-maximized="1"
     inkscape:current-layer="svg1" />
  <path
     style="opacity:0.3;fill:none;stroke:#000000"
     d="m 13.591398,10.227001 0.01912,-9.61529252 -3.9761054,0 0,2.48506572 -3.1732378,0.019116 0.019116,-2.5424134 H 2.255675 l 0.057348,9.6917563 z"
     id="path1"
     sodipodi:nodetypes="ccccccccc" />
  <path
     style="opacity:0.3;fill:none;stroke:#000000"
     d="m 13.591398,11.316607 0.03823,2.962963 h -2.0454 l 0.05735,1.949821 -2.5041816,-0.03823 0.019116,-1.146953 -2.1218638,0.01912 -0.038232,1.166069 h -2.408603 l 0.057348,-2.083632 -2.1792114,-0.01912 0.1338112,-2.810036 2.4850657,0.09558 v 1.051374 l 2.083632,-0.05735 -0.019116,-1.089606 2.1027479,0.09558 0.076463,1.242533 1.777778,-0.09558 -0.01912,-1.108722 z"
     id="path2" />
  <path
     style="opacity:0.3;fill:none;stroke:#000000"
     d="M 0.61170848,8.5448029 H 2.4659498 Z"
     id="path3" />
  <path
     style="opacity:0.3;fill:none;stroke:#000000"
     d="M 0.84109916,6.3655914 2.3321386,6.4038232 Z"
     id="path4" />
  <path
     style="opacity:0.3;fill:none;stroke:#000000"
     d="m 15.235364,6.4802867 -1.62485,0.038232 z"
     id="path5" />
  <path
     style="opacity:0.3;fill:none;stroke:#000000"
     d="m 15.292712,8.4683393 -1.643966,0.019116 z"
     id="path6" />
  <path
     id="rect11"
     style="opacity:0.3;fill:none;stroke:#000000"
     d="m 11.029868,2.4086022 h 0.917563 v 0.7646357 h -0.917563 z" />
  <path
     id="rect11-1"
     style="opacity:0.3;fill:none;stroke:#000000"
     d="m 3.8835125,2.1750299 h 0.917563 v 0.7646357 h -0.917563 z" />
  <path
     id="rect12"
     style="opacity:0.3;fill:none;stroke:#000000"
     d="m 4.2628436,7.1302271 h 0.1338112 v 0.172043 H 4.2628436 Z" />
  <path
     id="rect12-9"
     style="opacity:1;fill:#a3eab4;stroke:#0000e3;fill-opacity:0.39871383;stroke-opacity:1"
     d="m 11.387694,7.1057348 h 0.133811 v 0.172043 h -0.133811 z" />
</svg>
